<svg width="180" height="180" viewBox="0 0 180 180" fill="none" xmlns="http://www.w3.org/2000/svg">
<path fill-rule="evenodd" clip-rule="evenodd" d="M45.0081 92.061V44.9937C45.0081 42.0014 46.1893 39.144 48.3042 37.0404L85.3452 0H0V180H96.577L112.497 164.08V99.1715C99.4361 94.5143 89.9978 82.14 89.9978 67.4933C89.9978 48.8868 105.14 33.7452 123.746 33.7452C142.353 33.7452 157.495 48.8868 157.495 67.4933C157.495 82.14 148.057 94.5143 134.996 99.1715V168.738C134.996 171.73 133.815 174.587 131.7 176.691L128.391 180H180V0H117.159L67.5072 49.6509V92.061C80.568 96.7183 90.0063 109.093 90.0063 123.739C90.0063 142.346 74.8644 157.487 56.2577 157.487C37.6509 157.487 22.509 142.346 22.509 123.739C22.509 109.093 31.9474 96.7183 45.0081 92.061ZM56.2577 134.989C62.4562 134.989 67.5072 129.949 67.5072 123.739C67.5072 117.53 62.4562 112.49 56.2577 112.49C50.0592 112.49 45.0081 117.53 45.0081 123.739C45.0081 129.949 50.0592 134.989 56.2577 134.989ZM134.996 67.4933C134.996 73.703 129.945 78.7427 123.746 78.7427C117.548 78.7427 112.497 73.703 112.497 67.4933C112.497 61.2837 117.548 56.2439 123.746 56.2439C129.945 56.2439 134.996 61.2837 134.996 67.4933Z" fill="#00B2FF"/>
</svg>
